<svg xmlns="http://www.w3.org/2000/svg" xmlns:svg="http://www.w3.org/2000/svg" id="svg6122" width="128pt" height="128pt" version="1.1" viewBox="0 0 160 160"><metadata id="metadata6127"/><g id="layer1" transform="translate(0,-892.36222)" style="opacity:1"><path style="color:#000;clip-rule:nonzero;display:inline;overflow:visible;visibility:visible;opacity:1;isolation:auto;mix-blend-mode:normal;color-interpolation:sRGB;color-interpolation-filters:linearRGB;solid-color:#000;solid-opacity:1;fill:#6d6d6d;fill-opacity:1;fill-rule:evenodd;stroke:none;stroke-width:20;stroke-linecap:round;stroke-linejoin:round;stroke-miterlimit:4;stroke-dasharray:none;stroke-dashoffset:0;stroke-opacity:1;color-rendering:auto;image-rendering:auto;shape-rendering:auto;text-rendering:auto;enable-background:accumulate" id="path6670" d="m 79.625,895.86222 c -36.793672,0.0204 -71.4099028,31.45892 -69,71.44258 0.480271,7.96836 12.34883,-11.12738 21.681641,-11.13711 7.792299,0.009 15.088918,3.05276 19.546875,8.15502 5.736379,-5.41822 15.567093,-8.69231 26.121093,-8.69954 11.776426,0.003 22.544471,4.06538 27.832031,10.50113 4.11406,-6.28273 12.25644,-10.22314 21.13672,-10.22887 9.27159,0.009 20.55969,19.58663 21.61133,11.01374 4.85088,-39.54402 -32.29616,-70.99734 -68.92969,-71.04695 z"/><rect style="color:#000;clip-rule:nonzero;display:inline;overflow:visible;visibility:visible;opacity:1;isolation:auto;mix-blend-mode:normal;color-interpolation:sRGB;color-interpolation-filters:linearRGB;solid-color:#000;solid-opacity:1;fill:#6d6d6d;fill-opacity:1;fill-rule:evenodd;stroke:none;stroke-width:20;stroke-linecap:round;stroke-linejoin:round;stroke-miterlimit:4;stroke-dasharray:none;stroke-dashoffset:0;stroke-opacity:1;color-rendering:auto;image-rendering:auto;shape-rendering:auto;text-rendering:auto;enable-background:accumulate" id="rect6700" width="41" height="39" x="57.5" y="1010.862" rx="5" ry="4.756"/><path style="fill:none;fill-rule:evenodd;stroke:#6d6d6d;stroke-width:5;stroke-linecap:round;stroke-linejoin:round;stroke-miterlimit:4;stroke-dasharray:none;stroke-opacity:1" id="path6702" d="m 12.62132,964.83189 64.997398,54.72481"/><path style="opacity:1;fill:none;fill-rule:evenodd;stroke:#6d6d6d;stroke-width:5;stroke-linecap:round;stroke-linejoin:round;stroke-miterlimit:4;stroke-dasharray:none;stroke-opacity:1" id="path6702-3" d="M 144.73223,964.57302 77.525126,1019.7398"/><path style="fill:none;fill-rule:evenodd;stroke:#6d6d6d;stroke-width:5;stroke-linecap:round;stroke-linejoin:round;stroke-miterlimit:4;stroke-dasharray:none;stroke-opacity:1" id="path6719" d="M 50.396447,960.12218 77.65901,1019.6122"/><path style="fill:none;fill-rule:evenodd;stroke:#6d6d6d;stroke-width:5;stroke-linecap:round;stroke-linejoin:round;stroke-miterlimit:4;stroke-dasharray:none;stroke-opacity:1" id="path6721" d="M 105.45711,963.26863 78.204505,1016.7534"/></g></svg>